{
  "source": "C:\\Users\\Peter\\Desktop\\stuff\\MIUN\\quantitative_research\\video_compression\\videos\\BVI-HD\\BVI-HD_CDVL_videos\\ORIG\\DiverFishAndRock_1920x1080_30fps.mp4",
  "output": "C:\\Users\\Peter\\Desktop\\stuff\\MIUN\\quantitative_research\\video_compression\\compressed_videos\\BVI-HD\\hevc\\1.5\\DiverFishAndRock_1920x1080_30fps_hevc.mp4",
  "codec": "hevc",
  "ok": "Input #0, mov,mp4,m4a,3gp,3g2,mj2, from 'C:\\Users\\Peter\\Desktop\\stuff\\MIUN\\quantitative_research\\video_compression\\videos\\BVI-HD\\BVI-HD_CDVL_videos\\ORIG\\DiverFishAndRock_1920x1080_30fps.mp4':\n  Metadata:\n    major_brand     : isom\n    minor_version   : 512\n    compatible_brands: isomiso2avc1mp41\n    encoder         : Lavf54.28.101\n  Duration: 00:00:05.00, start: 0.000000, bitrate: 228854 kb/s\n  Stream #0:0[0x1](und): Video: h264 (High 4:4:4 Predictive) (avc1 / 0x31637661), yuv420p(progressive), 1920x1080, 228851 kb/s, 30 fps, 30 tbr, 30 tbn (default)\n    Metadata:\n      handler_name    : VideoHandler\n      vendor_id       : [0][0][0][0]\n[out#0/mp4 @ 0000020d4c13a980] Codec AVOption b:a (set bitrate (in bits/s)) has not been used for any stream. The most likely reason is either wrong type (e.g. a video option with no video streams) or that it is a private option of some decoder which was not actually used for any stream.\nStream mapping:\n  Stream #0:0 -> #0:0 (h264 (native) -> hevc (libx265))\nPress [q] to stop, [?] for help\n[libx265 @ 0000020d4c9eb7c0] Unknown option: \"aq-mode.\nx265 [info]: HEVC encoder version 4.1+190-8f11c33ac\nx265 [info]: build info [Windows][GCC 15.1.0][64 bit] 10bit\nx265 [info]: using cpu capabilities: MMX2 SSE2Fast LZCNT SSSE3 SSE4.2 AVX FMA3 BMI2 AVX2\nx265 [info]: Main 10 profile, Level-4 (Main tier)\nx265 [info]: Thread pool created using 12 threads\nx265 [info]: Slices                              : 1\nx265 [info]: frame threads / pool features       : 3 / wpp(17 rows)\nx265 [info]: Coding QT: max CU size, min CU size : 64 / 8\nx265 [info]: Residual QT: max TU size, max depth : 32 / 1 inter / 1 intra\nx265 [info]: ME / range / subpel / merge         : star / 57 / 3 / 3\nx265 [info]: Keyframe min / max / scenecut / bias  : 25 / 250 / 40 / 5.00 \nx265 [info]: Lookahead / bframes / badapt        : 25 / 4 / 2\nx265 [info]: b-pyramid / weightp / weightb       : 1 / 1 / 0\nx265 [info]: References / ref-limit  cu / depth  : 4 / on / on\nx265 [info]: AQ: mode / str / qg-size / cu-tree  : 2 / 1.0 / 32 / 1\nx265 [info]: Rate Control / qCompress            : ABR-1500 kbps / 0.60\nx265 [info]: VBV/HRD buffer / max-rate / init    : 1500 / 1500 / 0.750\nx265 [info]: tools: rect limit-modes rd=4 psy-rd=2.00 rdoq=2 psy-rdoq=1.00\nx265 [info]: tools: rskip mode=1 signhide tmvp strong-intra-smoothing lslices=4\nx265 [info]: tools: deblock sao dhdr10-info\nOutput #0, mp4, to 'C:\\Users\\Peter\\Desktop\\stuff\\MIUN\\quantitative_research\\video_compression\\compressed_videos\\BVI-HD\\hevc\\1.5\\DiverFishAndRock_1920x1080_30fps_hevc.mp4':\n  Metadata:\n    major_brand     : isom\n    minor_version   : 512\n    compatible_brands: isomiso2avc1mp41\n    encoder         : Lavf62.3.100\n  Stream #0:0(und): Video: hevc (hev1 / 0x31766568), yuv420p10le(tv, progressive), 1920x1080, q=2-31, 1500 kb/s, 30 fps, 15360 tbn (default)\n    Metadata:\n      encoder         : Lavc62.11.100 libx265\n      handler_name    : VideoHandler\n      vendor_id       : [0][0][0][0]\n    Side data:\n      cpb: bitrate max/min/avg: 1500000/0/1500000 buffer size: 1500000 vbv_delay: N/A\nframe=    0 fps=0.0 q=0.0 size=       0KiB time=N/A bitrate=N/A speed=N/A elapsed=0:00:01.08    \nframe=    0 fps=0.0 q=0.0 size=       0KiB time=N/A bitrate=N/A speed=N/A elapsed=0:00:01.66    \nframe=    0 fps=0.0 q=0.0 size=       0KiB time=N/A bitrate=N/A speed=N/A elapsed=0:00:02.18    \nframe=    0 fps=0.0 q=0.0 size=       0KiB time=N/A bitrate=N/A speed=N/A elapsed=0:00:02.72    \nframe=    0 fps=0.0 q=0.0 size=       0KiB time=N/A bitrate=N/A speed=N/A elapsed=0:00:03.29    \nframe=    0 fps=0.0 q=0.0 size=       0KiB time=N/A bitrate=N/A speed=N/A elapsed=0:00:03.81    \nframe=    0 fps=0.0 q=0.0 size=       0KiB time=N/A bitrate=N/A speed=N/A elapsed=0:00:04.32    \nframe=    0 fps=0.0 q=0.0 size=       0KiB time=N/A bitrate=N/A speed=N/A elapsed=0:00:04.84    \nframe=    0 fps=0.0 q=0.0 size=       0KiB time=N/A bitrate=N/A speed=N/A elapsed=0:00:05.35    \nframe=    0 fps=0.0 q=0.0 size=       0KiB time=N/A bitrate=N/A speed=N/A elapsed=0:00:05.88    \nframe=    0 fps=0.0 q=0.0 size=       0KiB time=N/A bitrate=N/A speed=N/A elapsed=0:00:06.41    \nframe=    1 fps=0.1 q=37.7 size=       0KiB time=-00:00:00.03 bitrate=N/A speed=N/A elapsed=0:00:06.93    \nframe=    1 fps=0.1 q=37.7 size=       0KiB time=-00:00:00.03 bitrate=N/A speed=N/A elapsed=0:00:07.45    \nframe=    2 fps=0.3 q=41.7 size=       0KiB time=00:00:00.00 bitrate=N/A speed=   0x elapsed=0:00:07.98    \nframe=    3 fps=0.4 q=45.0 size=       0KiB time=00:00:00.03 bitrate=  10.6kbits/s speed=0.00391x elapsed=0:00:08.51    \nframe=    3 fps=0.3 q=45.0 size=       0KiB time=00:00:00.03 bitrate=  10.6kbits/s speed=0.00369x elapsed=0:00:09.03    \nframe=    4 fps=0.4 q=46.5 size=       0KiB time=00:00:00.06 bitrate=   5.3kbits/s speed=0.00699x elapsed=0:00:09.54    \nframe=    4 fps=0.4 q=46.5 size=       0KiB time=00:00:00.06 bitrate=   5.3kbits/s speed=0.00663x elapsed=0:00:10.06    \nframe=    5 fps=0.5 q=45.0 size=       0KiB time=00:00:00.10 bitrate=   3.5kbits/s speed=0.00945x elapsed=0:00:10.58    \nframe=    5 fps=0.5 q=45.0 size=       0KiB time=00:00:00.10 bitrate=   3.5kbits/s speed=0.009x elapsed=0:00:11.10    \nframe=    6 fps=0.5 q=38.6 size=       0KiB time=00:00:00.13 bitrate=   2.6kbits/s speed=0.0115x elapsed=0:00:11.63    \nframe=    6 fps=0.5 q=38.6 size=       0KiB time=00:00:00.13 bitrate=   2.6kbits/s speed=0.011x elapsed=0:00:12.17    \nframe=    7 fps=0.6 q=42.2 size=       0KiB time=00:00:00.16 bitrate=   2.1kbits/s speed=0.0131x elapsed=0:00:12.68    \nframe=    7 fps=0.5 q=42.2 size=       0KiB time=00:00:00.16 bitrate=   2.1kbits/s speed=0.0126x elapsed=0:00:13.20    \nframe=    8 fps=0.6 q=42.4 size=       0KiB time=00:00:00.20 bitrate=   1.8kbits/s speed=0.0146x elapsed=0:00:13.71    \nframe=    8 fps=0.6 q=42.4 size=       0KiB time=00:00:00.20 bitrate=   1.8kbits/s speed=0.014x elapsed=0:00:14.23    \nframe=    8 fps=0.5 q=42.4 size=       0KiB time=00:00:00.20 bitrate=   1.8kbits/s speed=0.0135x elapsed=0:00:14.77    \nframe=    9 fps=0.6 q=42.0 size=       0KiB time=00:00:00.23 bitrate=   1.5kbits/s speed=0.0153x elapsed=0:00:15.29    \nframe=   10 fps=0.6 q=36.9 size=       0KiB time=00:00:00.26 bitrate=   1.3kbits/s speed=0.0169x elapsed=0:00:15.82    \nframe=   10 fps=0.6 q=36.9 size=       0KiB time=00:00:00.26 bitrate=   1.3kbits/s speed=0.0163x elapsed=0:00:16.34    \nframe=   11 fps=0.7 q=41.5 size=       0KiB time=00:00:00.30 bitrate=   1.2kbits/s speed=0.0178x elapsed=0:00:16.86    \nframe=   12 fps=0.7 q=42.2 size=       0KiB time=00:00:00.33 bitrate=   1.1kbits/s speed=0.0192x elapsed=0:00:17.38    \nframe=   12 fps=0.7 q=42.2 size=       0KiB time=00:00:00.33 bitrate=   1.1kbits/s speed=0.0186x elapsed=0:00:17.88    \nframe=   13 fps=0.7 q=42.2 size=       0KiB time=00:00:00.36 bitrate=   1.0kbits/s speed=0.0199x elapsed=0:00:18.41    \nframe=   13 fps=0.7 q=42.2 size=       0KiB time=00:00:00.36 bitrate=   1.0kbits/s speed=0.0193x elapsed=0:00:18.95    \nframe=   13 fps=0.7 q=42.2 size=       0KiB time=00:00:00.36 bitrate=   1.0kbits/s speed=0.0188x elapsed=0:00:19.46    \nframe=   14 fps=0.7 q=42.2 size=       0KiB time=00:00:00.40 bitrate=   0.9kbits/s speed=0.02x elapsed=0:00:19.98    \nframe=   14 fps=0.7 q=42.2 size=       0KiB time=00:00:00.40 bitrate=   0.9kbits/s speed=0.0195x elapsed=0:00:20.51    \nframe=   15 fps=0.7 q=36.5 size=       0KiB time=00:00:00.43 bitrate=   0.8kbits/s speed=0.0206x elapsed=0:00:21.03    \nframe=   16 fps=0.7 q=40.1 size=       0KiB time=00:00:00.46 bitrate=   0.8kbits/s speed=0.0216x elapsed=0:00:21.55    \nframe=   16 fps=0.7 q=40.1 size=       0KiB time=00:00:00.46 bitrate=   0.8kbits/s speed=0.0211x elapsed=0:00:22.08    \nframe=   16 fps=0.7 q=40.1 size=       0KiB time=00:00:00.46 bitrate=   0.8kbits/s speed=0.0207x elapsed=0:00:22.59    \nframe=   16 fps=0.7 q=40.1 size=       0KiB time=00:00:00.46 bitrate=   0.8kbits/s speed=0.0202x elapsed=0:00:23.11    \nframe=   17 fps=0.7 q=42.0 size=       0KiB time=00:00:00.50 bitrate=   0.7kbits/s speed=0.0212x elapsed=0:00:23.63    \nframe=   17 fps=0.7 q=42.0 size=       0KiB time=00:00:00.50 bitrate=   0.7kbits/s speed=0.0207x elapsed=0:00:24.16    \nframe=   17 fps=0.7 q=42.0 size=       0KiB time=00:00:00.50 bitrate=   0.7kbits/s speed=0.0202x elapsed=0:00:24.71    \nframe=   18 fps=0.7 q=41.4 size=       0KiB time=00:00:00.53 bitrate=   0.7kbits/s speed=0.0211x elapsed=0:00:25.24    \nframe=   18 fps=0.7 q=41.4 size=       0KiB time=00:00:00.53 bitrate=   0.7kbits/s speed=0.0207x elapsed=0:00:25.79    \nframe=   18 fps=0.7 q=41.4 size=       0KiB time=00:00:00.53 bitrate=   0.7kbits/s speed=0.0202x elapsed=0:00:26.39    \nframe=   18 fps=0.7 q=41.4 size=       0KiB time=00:00:00.53 bitrate=   0.7kbits/s speed=0.0197x elapsed=0:00:27.02    \nframe=   18 fps=0.7 q=41.4 size=       0KiB time=00:00:00.53 bitrate=   0.7kbits/s speed=0.0193x elapsed=0:00:27.60    \nframe=   18 fps=0.6 q=41.4 size=       0KiB time=00:00:00.53 bitrate=   0.7kbits/s speed=0.019x elapsed=0:00:28.13    \nframe=   18 fps=0.6 q=41.4 size=       0KiB time=00:00:00.53 bitrate=   0.7kbits/s speed=0.0186x elapsed=0:00:28.69    \nframe=   18 fps=0.6 q=41.4 size=       0KiB time=00:00:00.53 bitrate=   0.7kbits/s speed=0.0182x elapsed=0:00:29.23    \nframe=   18 fps=0.6 q=41.4 size=       0KiB time=00:00:00.53 bitrate=   0.7kbits/s speed=0.0179x elapsed=0:00:29.80    \nframe=   19 fps=0.6 q=36.1 size=       0KiB time=00:00:00.56 bitrate=   0.6kbits/s speed=0.0187x elapsed=0:00:30.33    \nframe=   19 fps=0.6 q=36.1 size=       0KiB time=00:00:00.56 bitrate=   0.6kbits/s speed=0.0184x elapsed=0:00:30.84    \nframe=   19 fps=0.6 q=36.1 size=       0KiB time=00:00:00.56 bitrate=   0.6kbits/s speed=0.018x elapsed=0:00:31.40    \nframe=   19 fps=0.6 q=36.1 size=       0KiB time=00:00:00.56 bitrate=   0.6kbits/s speed=0.0177x elapsed=0:00:31.96    \nframe=   19 fps=0.6 q=36.1 size=       0KiB time=00:00:00.56 bitrate=   0.6kbits/s speed=0.0174x elapsed=0:00:32.51    \nframe=   20 fps=0.6 q=39.9 size=       0KiB time=00:00:00.60 bitrate=   0.6kbits/s speed=0.0182x elapsed=0:00:33.03    \nframe=   20 fps=0.6 q=39.9 size=       0KiB time=00:00:00.60 bitrate=   0.6kbits/s speed=0.0179x elapsed=0:00:33.57    \nframe=   20 fps=0.6 q=39.9 size=       0KiB time=00:00:00.60 bitrate=   0.6kbits/s speed=0.0176x elapsed=0:00:34.15    \nframe=   20 fps=0.6 q=39.9 size=       0KiB time=00:00:00.60 bitrate=   0.6kbits/s speed=0.0173x elapsed=0:00:34.70    \nframe=   20 fps=0.6 q=39.9 size=       0KiB time=00:00:00.60 bitrate=   0.6kbits/s speed=0.017x elapsed=0:00:35.22    \nframe=   20 fps=0.6 q=39.9 size=       0KiB time=00:00:00.60 bitrate=   0.6kbits/s speed=0.0168x elapsed=0:00:35.73    \nframe=   21 fps=0.6 q=41.5 size=       0KiB time=00:00:00.63 bitrate=   0.6kbits/s speed=0.0175x elapsed=0:00:36.25    \nframe=   21 fps=0.6 q=41.5 size=       0KiB time=00:00:00.63 bitrate=   0.6kbits/s speed=0.0172x elapsed=0:00:36.80    \nframe=   21 fps=0.6 q=41.5 size=       0KiB time=00:00:00.63 bitrate=   0.6kbits/s speed=0.017x elapsed=0:00:37.36    \nframe=   21 fps=0.6 q=41.5 size=       0KiB time=00:00:00.63 bitrate=   0.6kbits/s speed=0.0167x elapsed=0:00:37.92    \nframe=   21 fps=0.5 q=41.5 size=       0KiB time=00:00:00.63 bitrate=   0.6kbits/s speed=0.0165x elapsed=0:00:38.45    \nframe=   21 fps=0.5 q=41.5 size=       0KiB time=00:00:00.63 bitrate=   0.6kbits/s speed=0.0162x elapsed=0:00:38.98    \nframe=   21 fps=0.5 q=41.5 size=       0KiB time=00:00:00.63 bitrate=   0.6kbits/s speed=0.016x elapsed=0:00:39.52    \nframe=   21 fps=0.5 q=41.5 size=       0KiB time=00:00:00.63 bitrate=   0.6kbits/s speed=0.0158x elapsed=0:00:40.09    \nframe=   21 fps=0.5 q=41.5 size=       0KiB time=00:00:00.63 bitrate=   0.6kbits/s speed=0.0156x elapsed=0:00:40.70    \nframe=   21 fps=0.5 q=41.5 size=       0KiB time=00:00:00.63 bitrate=   0.6kbits/s speed=0.0153x elapsed=0:00:41.32    \nframe=   22 fps=0.5 q=41.2 size=       0KiB time=00:00:00.66 bitrate=   0.5kbits/s speed=0.0159x elapsed=0:00:41.87    \nframe=   22 fps=0.5 q=41.2 size=       0KiB time=00:00:00.66 bitrate=   0.5kbits/s speed=0.0157x elapsed=0:00:42.40    \nframe=   22 fps=0.5 q=41.2 size=       0KiB time=00:00:00.66 bitrate=   0.5kbits/s speed=0.0155x elapsed=0:00:42.95    \nframe=   22 fps=0.5 q=41.2 size=       0KiB time=00:00:00.66 bitrate=   0.5kbits/s speed=0.0153x elapsed=0:00:43.54    \nframe=   22 fps=0.5 q=41.2 size=       0KiB time=00:00:00.66 bitrate=   0.5kbits/s speed=0.0151x elapsed=0:00:44.08    \nframe=   23 fps=0.5 q=35.4 size=       0KiB time=00:00:00.70 bitrate=   0.5kbits/s speed=0.0157x elapsed=0:00:44.60    \nframe=   23 fps=0.5 q=35.4 size=       0KiB time=00:00:00.70 bitrate=   0.5kbits/s speed=0.0155x elapsed=0:00:45.12    \nframe=   23 fps=0.5 q=35.4 size=       0KiB time=00:00:00.70 bitrate=   0.5kbits/s speed=0.0153x elapsed=0:00:45.65    \nframe=   23 fps=0.5 q=35.4 size=       0KiB time=00:00:00.70 bitrate=   0.5kbits/s speed=0.0152x elapsed=0:00:46.19    \nframe=   24 fps=0.5 q=38.4 size=       0KiB time=00:00:00.73 bitrate=   0.5kbits/s speed=0.0157x elapsed=0:00:46.71    \nframe=   24 fps=0.5 q=38.4 size=       0KiB time=00:00:00.73 bitrate=   0.5kbits/s speed=0.0155x elapsed=0:00:47.23    \nframe=   25 fps=0.5 q=40.8 size=       0KiB time=00:00:00.76 bitrate=   0.5kbits/s speed=0.0161x elapsed=0:00:47.74    \nframe=   25 fps=0.5 q=40.8 size=       0KiB time=00:00:00.76 bitrate=   0.5kbits/s speed=0.0159x elapsed=0:00:48.28    \nframe=   25 fps=0.5 q=40.8 size=       0KiB time=00:00:00.76 bitrate=   0.5kbits/s speed=0.0157x elapsed=0:00:48.80    \nframe=   25 fps=0.5 q=40.8 size=       0KiB time=00:00:00.76 bitrate=   0.5kbits/s speed=0.0155x elapsed=0:00:49.30    \nframe=   26 fps=0.5 q=40.3 size=       0KiB time=00:00:00.80 bitrate=   0.4kbits/s speed=0.0161x elapsed=0:00:49.82    \nframe=   27 fps=0.5 q=40.8 size=       0KiB time=00:00:00.83 bitrate=   0.4kbits/s speed=0.0166x elapsed=0:00:50.34    \nframe=   27 fps=0.5 q=40.8 size=       0KiB time=00:00:00.83 bitrate=   0.4kbits/s speed=0.0164x elapsed=0:00:50.85    \nframe=   28 fps=0.5 q=35.9 size=       0KiB time=00:00:00.86 bitrate=   0.4kbits/s speed=0.0169x elapsed=0:00:51.37    \nframe=   29 fps=0.6 q=37.6 size=       0KiB time=00:00:00.90 bitrate=   0.4kbits/s speed=0.0173x elapsed=0:00:51.89    \nframe=   29 fps=0.6 q=37.6 size=       0KiB time=00:00:00.90 bitrate=   0.4kbits/s speed=0.0172x elapsed=0:00:52.43    \nframe=   29 fps=0.5 q=37.6 size=       0KiB time=00:00:00.90 bitrate=   0.4kbits/s speed=0.017x elapsed=0:00:53.00    \nframe=   30 fps=0.6 q=41.4 size=       0KiB time=00:00:00.93 bitrate=   0.4kbits/s speed=0.0174x elapsed=0:00:53.52    \nframe=   30 fps=0.6 q=41.4 size=       0KiB time=00:00:00.93 bitrate=   0.4kbits/s speed=0.0173x elapsed=0:00:54.06    \nframe=   30 fps=0.5 q=41.4 size=       0KiB time=00:00:00.93 bitrate=   0.4kbits/s speed=0.0171x elapsed=0:00:54.58    \nframe=   30 fps=0.5 q=41.4 size=       0KiB time=00:00:00.93 bitrate=   0.4kbits/s speed=0.0169x elapsed=0:00:55.09    \nframe=   31 fps=0.6 q=41.1 size=       0KiB time=00:00:00.96 bitrate=   0.4kbits/s speed=0.0174x elapsed=0:00:55.60    \nframe=   31 fps=0.6 q=41.1 size=       0KiB time=00:00:00.96 bitrate=   0.4kbits/s speed=0.0172x elapsed=0:00:56.14    \nframe=   31 fps=0.5 q=41.1 size=       0KiB time=00:00:00.96 bitrate=   0.4kbits/s speed=0.0171x elapsed=0:00:56.67    \nframe=   31 fps=0.5 q=41.1 size=       0KiB time=00:00:00.96 bitrate=   0.4kbits/s speed=0.0169x elapsed=0:00:57.20    \nframe=   32 fps=0.6 q=41.5 size=       0KiB time=00:00:01.00 bitrate=   0.4kbits/s speed=0.0173x elapsed=0:00:57.71    \nframe=   32 fps=0.5 q=41.5 size=       0KiB time=00:00:01.00 bitrate=   0.4kbits/s speed=0.0172x elapsed=0:00:58.24    \nframe=   32 fps=0.5 q=41.5 size=       0KiB time=00:00:01.00 bitrate=   0.4kbits/s speed=0.017x elapsed=0:00:58.76    \nframe=   33 fps=0.6 q=35.6 size=       0KiB time=00:00:01.00 bitrate=   0.4kbits/s speed=0.0169x elapsed=0:00:59.29    \nframe=   33 fps=0.6 q=35.6 size=       0KiB time=00:00:01.03 bitrate=   0.3kbits/s speed=0.0173x elapsed=0:00:59.81    \nframe=   33 fps=0.5 q=35.6 size=       0KiB time=00:00:01.03 bitrate=   0.3kbits/s speed=0.0171x elapsed=0:01:00.34    \nframe=   34 fps=0.6 q=39.4 size=       0KiB time=00:00:01.06 bitrate=   0.3kbits/s speed=0.0175x elapsed=0:01:00.87    \nframe=   34 fps=0.6 q=39.4 size=       0KiB time=00:00:01.06 bitrate=   0.3kbits/s speed=0.0174x elapsed=0:01:01.39    \nframe=   34 fps=0.5 q=39.4 size=       0KiB time=00:00:01.06 bitrate=   0.3kbits/s speed=0.0172x elapsed=0:01:01.95    \nframe=   34 fps=0.5 q=39.4 size=       0KiB time=00:00:01.06 bitrate=   0.3kbits/s speed=0.0171x elapsed=0:01:02.48    \nframe=   34 fps=0.5 q=39.4 size=       0KiB time=00:00:01.06 bitrate=   0.3kbits/s speed=0.0169x elapsed=0:01:03.01    \nframe=   35 fps=0.6 q=41.2 size=       0KiB time=00:00:01.10 bitrate=   0.3kbits/s speed=0.0173x elapsed=0:01:03.55    \nframe=   35 fps=0.5 q=41.2 size=       0KiB time=00:00:01.10 bitrate=   0.3kbits/s speed=0.0172x elapsed=0:01:04.07    \nframe=   35 fps=0.5 q=41.2 size=       0KiB time=00:00:01.10 bitrate=   0.3kbits/s speed=0.017x elapsed=0:01:04.59    \nframe=   35 fps=0.5 q=41.2 size=       0KiB time=00:00:01.10 bitrate=   0.3kbits/s speed=0.0169x elapsed=0:01:05.11    \nframe=   36 fps=0.5 q=41.2 size=       0KiB time=00:00:01.13 bitrate=   0.3kbits/s speed=0.0173x elapsed=0:01:05.62    \nframe=   36 fps=0.5 q=41.2 size=       0KiB time=00:00:01.13 bitrate=   0.3kbits/s speed=0.0171x elapsed=0:01:06.14    \nframe=   37 fps=0.6 q=35.5 size=       0KiB time=00:00:01.13 bitrate=   0.3kbits/s speed=0.017x elapsed=0:01:06.65    \nframe=   37 fps=0.6 q=35.5 size=       0KiB time=00:00:01.16 bitrate=   0.3kbits/s speed=0.0174x elapsed=0:01:07.18    \nframe=   38 fps=0.6 q=39.2 size=       0KiB time=00:00:01.20 bitrate=   0.3kbits/s speed=0.0177x elapsed=0:01:07.70    \nframe=   38 fps=0.6 q=39.2 size=       0KiB time=00:00:01.20 bitrate=   0.3kbits/s speed=0.0176x elapsed=0:01:08.21    \nframe=   38 fps=0.6 q=39.2 size=       0KiB time=00:00:01.20 bitrate=   0.3kbits/s speed=0.0175x elapsed=0:01:08.74    \nframe=   38 fps=0.5 q=39.2 size=       0KiB time=00:00:01.20 bitrate=   0.3kbits/s speed=0.0173x elapsed=0:01:09.29    \nframe=   39 fps=0.6 q=41.3 size=       0KiB time=00:00:01.23 bitrate=   0.3kbits/s speed=0.0177x elapsed=0:01:09.82    \nframe=   39 fps=0.6 q=41.3 size=       0KiB time=00:00:01.23 bitrate=   0.3kbits/s speed=0.0175x elapsed=0:01:10.34    \nframe=   39 fps=0.6 q=41.3 size=       0KiB time=00:00:01.23 bitrate=   0.3kbits/s speed=0.0174x elapsed=0:01:10.85    \nframe=   40 fps=0.6 q=41.0 size=       0KiB time=00:00:01.26 bitrate=   0.3kbits/s speed=0.0177x elapsed=0:01:11.37    \nframe=   40 fps=0.6 q=41.0 size=       0KiB time=00:00:01.26 bitrate=   0.3kbits/s speed=0.0176x elapsed=0:01:11.88    \nframe=   40 fps=0.6 q=41.0 size=       0KiB time=00:00:01.26 bitrate=   0.3kbits/s speed=0.0175x elapsed=0:01:12.40    \nframe=   41 fps=0.6 q=35.3 size=       0KiB time=00:00:01.30 bitrate=   0.3kbits/s speed=0.0178x elapsed=0:01:12.91    \nframe=   41 fps=0.6 q=35.3 size=       0KiB time=00:00:01.30 bitrate=   0.3kbits/s speed=0.0177x elapsed=0:01:13.43    \nframe=   41 fps=0.6 q=35.3 size=       0KiB time=00:00:01.30 bitrate=   0.3kbits/s speed=0.0176x elapsed=0:01:13.95    \nframe=   41 fps=0.6 q=35.3 size=       0KiB time=00:00:01.30 bitrate=   0.3kbits/s speed=0.0175x elapsed=0:01:14.47    \nframe=   42 fps=0.6 q=38.5 size=       0KiB time=00:00:01.33 bitrate=   0.3kbits/s speed=0.0178x elapsed=0:01:14.99    \nframe=   42 fps=0.6 q=38.5 size=       0KiB time=00:00:01.33 bitrate=   0.3kbits/s speed=0.0177x elapsed=0:01:15.51    \nframe=   43 fps=0.6 q=40.9 size=       0KiB time=00:00:01.36 bitrate=   0.3kbits/s speed=0.018x elapsed=0:01:16.03    \nframe=   43 fps=0.6 q=40.9 size=       0KiB time=00:00:01.36 bitrate=   0.3kbits/s speed=0.0179x elapsed=0:01:16.56    \nframe=   43 fps=0.6 q=40.9 size=       0KiB time=00:00:01.36 bitrate=   0.3kbits/s speed=0.0177x elapsed=0:01:17.08    \nframe=   43 fps=0.6 q=40.9 size=       0KiB time=00:00:01.36 bitrate=   0.3kbits/s speed=0.0176x elapsed=0:01:17.58    \nframe=   44 fps=0.6 q=41.0 size=     256KiB time=00:00:01.40 bitrate=1498.2kbits/s speed=0.0179x elapsed=0:01:18.11    \nframe=   44 fps=0.6 q=41.0 size=     256KiB time=00:00:01.40 bitrate=1498.2kbits/s speed=0.0178x elapsed=0:01:18.63    \nframe=   44 fps=0.6 q=41.0 size=     256KiB time=00:00:01.40 bitrate=1498.2kbits/s speed=0.0177x elapsed=0:01:19.19    \nframe=   44 fps=0.6 q=41.0 size=     256KiB time=00:00:01.40 bitrate=1498.2kbits/s speed=0.0176x elapsed=0:01:19.72    \nframe=   45 fps=0.6 q=41.1 size=     256KiB time=00:00:01.43 bitrate=1463.4kbits/s speed=0.0179x elapsed=0:01:20.24    \nframe=   46 fps=0.6 q=35.6 size=     256KiB time=00:00:01.46 bitrate=1430.1kbits/s speed=0.0182x elapsed=0:01:20.74    \nframe=   47 fps=0.6 q=38.8 size=     256KiB time=00:00:01.50 bitrate=1398.3kbits/s speed=0.0185x elapsed=0:01:21.29    \nframe=   47 fps=0.6 q=38.8 size=     256KiB time=00:00:01.50 bitrate=1398.3kbits/s speed=0.0183x elapsed=0:01:21.86    \nframe=   47 fps=0.6 q=38.8 size=     256KiB time=00:00:01.50 bitrate=1398.3kbits/s speed=0.0182x elapsed=0:01:22.40    \nframe=   47 fps=0.6 q=38.8 size=     256KiB time=00:00:01.50 bitrate=1398.3kbits/s speed=0.0181x elapsed=0:01:22.94    \nframe=   48 fps=0.6 q=41.3 size=     256KiB time=00:00:01.53 bitrate=1367.9kbits/s speed=0.0184x elapsed=0:01:23.47    \nframe=   48 fps=0.6 q=41.3 size=     256KiB time=00:00:01.53 bitrate=1367.9kbits/s speed=0.0183x elapsed=0:01:23.99    \nframe=   48 fps=0.6 q=41.3 size=     256KiB time=00:00:01.53 bitrate=1367.9kbits/s speed=0.0181x elapsed=0:01:24.53    \nframe=   48 fps=0.6 q=41.3 size=     256KiB time=00:00:01.53 bitrate=1367.9kbits/s speed=0.018x elapsed=0:01:25.07    \nframe=   49 fps=0.6 q=41.2 size=     256KiB time=00:00:01.56 bitrate=1338.8kbits/s speed=0.0183x elapsed=0:01:25.57    \nframe=   49 fps=0.6 q=41.2 size=     256KiB time=00:00:01.56 bitrate=1338.8kbits/s speed=0.0182x elapsed=0:01:26.09    \nframe=   49 fps=0.6 q=41.2 size=     256KiB time=00:00:01.56 bitrate=1338.8kbits/s speed=0.0181x elapsed=0:01:26.62    \nframe=   50 fps=0.6 q=35.3 size=     256KiB time=00:00:01.60 bitrate=1310.9kbits/s speed=0.0184x elapsed=0:01:27.14    \nframe=   50 fps=0.6 q=35.3 size=     256KiB time=00:00:01.60 bitrate=1310.9kbits/s speed=0.0183x elapsed=0:01:27.67    \nframe=   51 fps=0.6 q=38.9 size=     256KiB time=00:00:01.63 bitrate=1284.2kbits/s speed=0.0185x elapsed=0:01:28.18    \nframe=   51 fps=0.6 q=38.9 size=     256KiB time=00:00:01.63 bitrate=1284.2kbits/s speed=0.0184x elapsed=0:01:28.70    \nframe=   52 fps=0.6 q=41.1 size=     256KiB time=00:00:01.66 bitrate=1258.5kbits/s speed=0.0187x elapsed=0:01:29.22    \nframe=   52 fps=0.6 q=41.1 size=     256KiB time=00:00:01.66 bitrate=1258.5kbits/s speed=0.0186x elapsed=0:01:29.74    \nframe=   53 fps=0.6 q=40.9 size=     256KiB time=00:00:01.70 bitrate=1233.8kbits/s speed=0.0188x elapsed=0:01:30.27    \nframe=   53 fps=0.6 q=40.9 size=     256KiB time=00:00:01.70 bitrate=1233.8kbits/s speed=0.0187x elapsed=0:01:30.77    \nframe=   54 fps=0.6 q=35.2 size=     256KiB time=00:00:01.73 bitrate=1210.1kbits/s speed=0.019x elapsed=0:01:31.29    \nframe=   54 fps=0.6 q=35.2 size=     256KiB time=00:00:01.73 bitrate=1210.1kbits/s speed=0.0189x elapsed=0:01:31.81    \nframe=   54 fps=0.6 q=35.2 size=     256KiB time=00:00:01.73 bitrate=1210.1kbits/s speed=0.0188x elapsed=0:01:32.33    \nframe=   55 fps=0.6 q=38.8 size=     256KiB time=00:00:01.76 bitrate=1187.3kbits/s speed=0.019x elapsed=0:01:32.86    \nframe=   55 fps=0.6 q=38.8 size=     256KiB time=00:00:01.76 bitrate=1187.3kbits/s speed=0.0189x elapsed=0:01:33.38    \nframe=   55 fps=0.6 q=38.8 size=     256KiB time=00:00:01.76 bitrate=1187.3kbits/s speed=0.0188x elapsed=0:01:33.89    \nframe=   56 fps=0.6 q=41.1 size=     256KiB time=00:00:01.80 bitrate=1165.3kbits/s speed=0.0191x elapsed=0:01:34.39    \nframe=   56 fps=0.6 q=41.1 size=     256KiB time=00:00:01.80 bitrate=1165.3kbits/s speed=0.019x elapsed=0:01:34.94    \nframe=   56 fps=0.6 q=41.1 size=     256KiB time=00:00:01.80 bitrate=1165.3kbits/s speed=0.0189x elapsed=0:01:35.45    \nframe=   56 fps=0.6 q=41.1 size=     256KiB time=00:00:01.80 bitrate=1165.3kbits/s speed=0.0187x elapsed=0:01:36.01    \nframe=   56 fps=0.6 q=41.1 size=     256KiB time=00:00:01.80 bitrate=1165.3kbits/s speed=0.0186x elapsed=0:01:36.59    \nframe=   56 fps=0.6 q=41.1 size=     256KiB time=00:00:01.80 bitrate=1165.3kbits/s speed=0.0185x elapsed=0:01:37.11    \nframe=   56 fps=0.6 q=41.1 size=     256KiB time=00:00:01.80 bitrate=1165.3kbits/s speed=0.0184x elapsed=0:01:37.63    \nframe=   57 fps=0.6 q=40.3 size=     256KiB time=00:00:01.83 bitrate=1144.1kbits/s speed=0.0187x elapsed=0:01:38.15    \nframe=   57 fps=0.6 q=40.3 size=     256KiB time=00:00:01.83 bitrate=1144.1kbits/s speed=0.0186x elapsed=0:01:38.67    \nframe=   58 fps=0.6 q=35.2 size=     256KiB time=00:00:01.86 bitrate=1123.7kbits/s speed=0.0188x elapsed=0:01:39.20    \nframe=   58 fps=0.6 q=35.2 size=     256KiB time=00:00:01.86 bitrate=1123.7kbits/s speed=0.0187x elapsed=0:01:39.72    \nframe=   60 fps=0.6 q=40.4 size=     256KiB time=00:00:01.93 bitrate=1084.9kbits/s speed=0.0193x elapsed=0:01:40.24    \nframe=   61 fps=0.6 q=40.2 size=     256KiB time=00:00:01.96 bitrate=1066.5kbits/s speed=0.0195x elapsed=0:01:40.74    \nframe=   62 fps=0.6 q=40.5 size=     256KiB time=00:00:02.00 bitrate=1048.8kbits/s speed=0.0197x elapsed=0:01:41.27    \nframe=   63 fps=0.6 q=35.2 size=     256KiB time=00:00:02.03 bitrate=1031.6kbits/s speed=0.02x elapsed=0:01:41.78    \nframe=   64 fps=0.6 q=39.1 size=     256KiB time=00:00:02.06 bitrate=1014.9kbits/s speed=0.0202x elapsed=0:01:42.29    \nframe=   65 fps=0.6 q=40.4 size=     256KiB time=00:00:02.10 bitrate= 998.8kbits/s speed=0.0204x elapsed=0:01:42.81    \nframe=   66 fps=0.6 q=40.3 size=     256KiB time=00:00:02.13 bitrate= 983.2kbits/s speed=0.0206x elapsed=0:01:43.33    \nframe=   66 fps=0.6 q=40.3 size=     256KiB time=00:00:02.13 bitrate= 983.2kbits/s speed=0.0205x elapsed=0:01:43.84    \nframe=   68 fps=0.7 q=38.4 size=     256KiB time=00:00:02.20 bitrate= 953.4kbits/s speed=0.0211x elapsed=0:01:44.35    \nframe=   68 fps=0.6 q=38.4 size=     256KiB time=00:00:02.20 bitrate= 953.4kbits/s speed=0.021x elapsed=0:01:44.87    \nframe=   69 fps=0.7 q=40.2 size=     256KiB time=00:00:02.23 bitrate= 939.2kbits/s speed=0.0212x elapsed=0:01:45.38    \nframe=   69 fps=0.7 q=40.2 size=     256KiB time=00:00:02.23 bitrate= 939.2kbits/s speed=0.0211x elapsed=0:01:45.90    \nframe=   71 fps=0.7 q=35.2 size=     256KiB time=00:00:02.30 bitrate= 912.0kbits/s speed=0.0216x elapsed=0:01:46.42    \nframe=   72 fps=0.7 q=38.4 size=     256KiB time=00:00:02.33 bitrate= 898.9kbits/s speed=0.0218x elapsed=0:01:46.93    \nframe=   73 fps=0.7 q=40.2 size=     256KiB time=00:00:02.36 bitrate= 886.3kbits/s speed=0.022x elapsed=0:01:47.45    \nframe=   73 fps=0.7 q=40.2 size=     256KiB time=00:00:02.36 bitrate= 886.3kbits/s speed=0.0219x elapsed=0:01:47.97    \nframe=   74 fps=0.7 q=40.2 size=     256KiB time=00:00:02.40 bitrate= 874.0kbits/s speed=0.0221x elapsed=0:01:48.48    \nframe=   76 fps=0.7 q=38.2 size=     256KiB time=00:00:02.46 bitrate= 850.3kbits/s speed=0.0226x elapsed=0:01:49.00    \nframe=   77 fps=0.7 q=40.1 size=     256KiB time=00:00:02.50 bitrate= 839.0kbits/s speed=0.0228x elapsed=0:01:49.52    \nframe=   78 fps=0.7 q=40.1 size=     256KiB time=00:00:02.53 bitrate= 828.0kbits/s speed=0.023x elapsed=0:01:50.04    \nframe=   79 fps=0.7 q=35.3 size=     256KiB time=00:00:02.56 bitrate= 817.2kbits/s speed=0.0232x elapsed=0:01:50.55    \nframe=   80 fps=0.7 q=38.3 size=     256KiB time=00:00:02.60 bitrate= 806.7kbits/s speed=0.0234x elapsed=0:01:51.08    \nframe=   81 fps=0.7 q=40.3 size=     256KiB time=00:00:02.63 bitrate= 796.5kbits/s speed=0.0236x elapsed=0:01:51.60    \nframe=   81 fps=0.7 q=40.3 size=     256KiB time=00:00:02.63 bitrate= 796.5kbits/s speed=0.0235x elapsed=0:01:52.10    \nframe=   82 fps=0.7 q=40.1 size=     256KiB time=00:00:02.66 bitrate= 786.6kbits/s speed=0.0237x elapsed=0:01:52.62    \nframe=   83 fps=0.7 q=34.9 size=     256KiB time=00:00:02.70 bitrate= 776.9kbits/s speed=0.0239x elapsed=0:01:53.14    \nframe=   83 fps=0.7 q=34.9 size=     256KiB time=00:00:02.70 bitrate= 776.9kbits/s speed=0.0238x elapsed=0:01:53.66    \nframe=   84 fps=0.7 q=38.3 size=     256KiB time=00:00:02.73 bitrate= 767.4kbits/s speed=0.0239x elapsed=0:01:54.19    \nframe=   84 fps=0.7 q=38.3 size=     256KiB time=00:00:02.73 bitrate= 767.4kbits/s speed=0.0238x elapsed=0:01:54.71    \nframe=   85 fps=0.7 q=40.2 size=     256KiB time=00:00:02.76 bitrate= 758.1kbits/s speed=0.024x elapsed=0:01:55.24    \nframe=   85 fps=0.7 q=40.2 size=     256KiB time=00:00:02.76 bitrate= 758.1kbits/s speed=0.0239x elapsed=0:01:55.78    \nframe=   85 fps=0.7 q=40.2 size=     256KiB time=00:00:02.76 bitrate= 758.1kbits/s speed=0.0238x elapsed=0:01:56.31    \nframe=   85 fps=0.7 q=40.2 size=     256KiB time=00:00:02.76 bitrate= 758.1kbits/s speed=0.0237x elapsed=0:01:56.85    \nframe=   86 fps=0.7 q=40.4 size=     256KiB time=00:00:02.80 bitrate= 749.1kbits/s speed=0.0239x elapsed=0:01:57.37    \nframe=   86 fps=0.7 q=40.4 size=     256KiB time=00:00:02.80 bitrate= 749.1kbits/s speed=0.0237x elapsed=0:01:57.90    \nframe=   86 fps=0.7 q=40.4 size=     256KiB time=00:00:02.80 bitrate= 749.1kbits/s speed=0.0236x elapsed=0:01:58.41    \nframe=   86 fps=0.7 q=40.4 size=     256KiB time=00:00:02.80 bitrate= 749.1kbits/s speed=0.0235x elapsed=0:01:58.93    \nframe=   87 fps=0.7 q=35.3 size=     512KiB time=00:00:02.83 bitrate=1480.5kbits/s speed=0.0237x elapsed=0:01:59.45    \nframe=   88 fps=0.7 q=38.6 size=     512KiB time=00:00:02.86 bitrate=1463.3kbits/s speed=0.0239x elapsed=0:01:59.97    \nframe=   89 fps=0.7 q=40.4 size=     512KiB time=00:00:02.90 bitrate=1446.4kbits/s speed=0.0241x elapsed=0:02:00.52    \nframe=   89 fps=0.7 q=40.4 size=     512KiB time=00:00:02.90 bitrate=1446.4kbits/s speed=0.024x elapsed=0:02:01.03    \nframe=   89 fps=0.7 q=40.4 size=     512KiB time=00:00:02.90 bitrate=1446.4kbits/s speed=0.0239x elapsed=0:02:01.55    \nframe=   90 fps=0.7 q=41.1 size=     512KiB time=00:00:02.93 bitrate=1430.0kbits/s speed=0.024x elapsed=0:02:02.10    \nframe=   90 fps=0.7 q=41.1 size=     512KiB time=00:00:02.93 bitrate=1430.0kbits/s speed=0.0239x elapsed=0:02:02.64    \nframe=   91 fps=0.7 q=35.0 size=     512KiB time=00:00:02.96 bitrate=1413.9kbits/s speed=0.0241x elapsed=0:02:03.18    \nframe=   92 fps=0.7 q=39.2 size=     512KiB time=00:00:03.00 bitrate=1398.2kbits/s speed=0.0243x elapsed=0:02:03.70    \nframe=   92 fps=0.7 q=39.2 size=     512KiB time=00:00:03.00 bitrate=1398.2kbits/s speed=0.0242x elapsed=0:02:04.21    \nframe=   92 fps=0.7 q=39.2 size=     512KiB time=00:00:03.00 bitrate=1398.2kbits/s speed=0.024x elapsed=0:02:04.74    \nframe=   92 fps=0.7 q=39.2 size=     512KiB time=00:00:03.00 bitrate=1398.2kbits/s speed=0.0239x elapsed=0:02:05.26    \nframe=   93 fps=0.7 q=41.3 size=     512KiB time=00:00:03.03 bitrate=1382.9kbits/s speed=0.0241x elapsed=0:02:05.79    \nframe=   93 fps=0.7 q=41.3 size=     512KiB time=00:00:03.03 bitrate=1382.9kbits/s speed=0.024x elapsed=0:02:06.32    \nframe=   94 fps=0.7 q=41.0 size=     512KiB time=00:00:03.06 bitrate=1367.8kbits/s speed=0.0242x elapsed=0:02:06.84    \nframe=   94 fps=0.7 q=41.0 size=     512KiB time=00:00:03.06 bitrate=1367.8kbits/s speed=0.0241x elapsed=0:02:07.36    \nframe=   94 fps=0.7 q=41.0 size=     512KiB time=00:00:03.06 bitrate=1367.8kbits/s speed=0.024x elapsed=0:02:07.87    \nframe=   94 fps=0.7 q=41.0 size=     512KiB time=00:00:03.06 bitrate=1367.8kbits/s speed=0.0239x elapsed=0:02:08.39    \nframe=   95 fps=0.7 q=35.2 size=     512KiB time=00:00:03.10 bitrate=1353.1kbits/s speed=0.024x elapsed=0:02:08.92    \nframe=   96 fps=0.7 q=38.6 size=     512KiB time=00:00:03.13 bitrate=1338.7kbits/s speed=0.0242x elapsed=0:02:09.44    \nframe=   97 fps=0.7 q=40.5 size=     512KiB time=00:00:03.16 bitrate=1324.6kbits/s speed=0.0244x elapsed=0:02:09.95    \nframe=   97 fps=0.7 q=40.5 size=     512KiB time=00:00:03.16 bitrate=1324.6kbits/s speed=0.0243x elapsed=0:02:10.48    \nframe=   97 fps=0.7 q=40.5 size=     512KiB time=00:00:03.16 bitrate=1324.6kbits/s speed=0.0242x elapsed=0:02:11.01    \nframe=   97 fps=0.7 q=40.5 size=     512KiB time=00:00:03.16 bitrate=1324.6kbits/s speed=0.0241x elapsed=0:02:11.54    \nframe=   98 fps=0.7 q=41.1 size=     512KiB time=00:00:03.20 bitrate=1310.8kbits/s speed=0.0242x elapsed=0:02:12.06    \nframe=   98 fps=0.7 q=41.1 size=     512KiB time=00:00:03.20 bitrate=1310.8kbits/s speed=0.0241x elapsed=0:02:12.58    \nframe=   98 fps=0.7 q=41.1 size=     512KiB time=00:00:03.20 bitrate=1310.8kbits/s speed=0.024x elapsed=0:02:13.11    \nframe=   99 fps=0.7 q=35.1 size=     512KiB time=00:00:03.23 bitrate=1297.3kbits/s speed=0.0242x elapsed=0:02:13.65    \nframe=   99 fps=0.7 q=35.1 size=     512KiB time=00:00:03.23 bitrate=1297.3kbits/s speed=0.0241x elapsed=0:02:14.20    \nframe=   99 fps=0.7 q=35.1 size=     512KiB time=00:00:03.23 bitrate=1297.3kbits/s speed=0.024x elapsed=0:02:14.81    \nframe=   99 fps=0.7 q=35.1 size=     512KiB time=00:00:03.23 bitrate=1297.3kbits/s speed=0.0239x elapsed=0:02:15.46    \nframe=   99 fps=0.7 q=35.1 size=     512KiB time=00:00:03.23 bitrate=1297.3kbits/s speed=0.0238x elapsed=0:02:16.06    \nframe=   99 fps=0.7 q=35.1 size=     512KiB time=00:00:03.23 bitrate=1297.3kbits/s speed=0.0237x elapsed=0:02:16.63    \nframe=   99 fps=0.7 q=35.1 size=     512KiB time=00:00:03.23 bitrate=1297.3kbits/s speed=0.0236x elapsed=0:02:17.16    \nframe=   99 fps=0.7 q=35.1 size=     512KiB time=00:00:03.23 bitrate=1297.3kbits/s speed=0.0235x elapsed=0:02:17.76    \nframe=   99 fps=0.7 q=35.1 size=     512KiB time=00:00:03.23 bitrate=1297.3kbits/s speed=0.0234x elapsed=0:02:18.38    \nframe=   99 fps=0.7 q=35.1 size=     512KiB time=00:00:03.23 bitrate=1297.3kbits/s speed=0.0233x elapsed=0:02:18.94    \nframe=  100 fps=0.7 q=38.6 size=     512KiB time=00:00:03.26 bitrate=1284.1kbits/s speed=0.0234x elapsed=0:02:19.47    \nframe=  100 fps=0.7 q=38.6 size=     512KiB time=00:00:03.26 bitrate=1284.1kbits/s speed=0.0233x elapsed=0:02:20.02    \nframe=  101 fps=0.7 q=41.1 size=     512KiB time=00:00:03.30 bitrate=1271.1kbits/s speed=0.0235x elapsed=0:02:20.54    \nframe=  101 fps=0.7 q=41.1 size=     512KiB time=00:00:03.30 bitrate=1271.1kbits/s speed=0.0234x elapsed=0:02:21.08    \nframe=  101 fps=0.7 q=41.1 size=     512KiB time=00:00:03.30 bitrate=1271.1kbits/s speed=0.0233x elapsed=0:02:21.63    \nframe=  102 fps=0.7 q=41.2 size=     512KiB time=00:00:03.33 bitrate=1258.4kbits/s speed=0.0234x elapsed=0:02:22.14    \nframe=  102 fps=0.7 q=41.2 size=     512KiB time=00:00:03.33 bitrate=1258.4kbits/s speed=0.0234x elapsed=0:02:22.67    \nframe=  102 fps=0.7 q=41.2 size=     512KiB time=00:00:03.33 bitrate=1258.4kbits/s speed=0.0233x elapsed=0:02:23.19    \nframe=  103 fps=0.7 q=35.0 size=     512KiB time=00:00:03.36 bitrate=1245.9kbits/s speed=0.0234x elapsed=0:02:23.71    \nframe=  104 fps=0.7 q=39.0 size=     512KiB time=00:00:03.40 bitrate=1233.7kbits/s speed=0.0236x elapsed=0:02:24.23    \nframe=  105 fps=0.7 q=41.1 size=     512KiB time=00:00:03.43 bitrate=1221.7kbits/s speed=0.0237x elapsed=0:02:24.75    \nframe=  105 fps=0.7 q=41.1 size=     512KiB time=00:00:03.43 bitrate=1221.7kbits/s speed=0.0236x elapsed=0:02:25.28    \nframe=  105 fps=0.7 q=41.1 size=     512KiB time=00:00:03.43 bitrate=1221.7kbits/s speed=0.0235x elapsed=0:02:25.80    \nframe=  106 fps=0.7 q=41.3 size=     512KiB time=00:00:03.46 bitrate=1210.0kbits/s speed=0.0237x elapsed=0:02:26.32    \nframe=  107 fps=0.7 q=35.5 size=     512KiB time=00:00:03.50 bitrate=1198.5kbits/s speed=0.0238x elapsed=0:02:26.85    \nframe=  107 fps=0.7 q=35.5 size=     512KiB time=00:00:03.50 bitrate=1198.5kbits/s speed=0.0237x elapsed=0:02:27.40    \nframe=  108 fps=0.7 q=39.0 size=     512KiB time=00:00:03.53 bitrate=1187.2kbits/s speed=0.0239x elapsed=0:02:27.93    \nframe=  109 fps=0.7 q=41.2 size=     512KiB time=00:00:03.56 bitrate=1176.1kbits/s speed=0.024x elapsed=0:02:28.47    \nframe=  109 fps=0.7 q=41.2 size=     512KiB time=00:00:03.56 bitrate=1176.1kbits/s speed=0.0239x elapsed=0:02:29.02    \nframe=  109 fps=0.7 q=41.2 size=     512KiB time=00:00:03.56 bitrate=1176.1kbits/s speed=0.0238x elapsed=0:02:29.55    \nframe=  109 fps=0.7 q=41.2 size=     512KiB time=00:00:03.56 bitrate=1176.1kbits/s speed=0.0238x elapsed=0:02:30.07    \nframe=  110 fps=0.7 q=41.4 size=     512KiB time=00:00:03.60 bitrate=1165.2kbits/s speed=0.0239x elapsed=0:02:30.61    \nframe=  110 fps=0.7 q=41.4 size=     512KiB time=00:00:03.60 bitrate=1165.2kbits/s speed=0.0238x elapsed=0:02:31.15    \nframe=  110 fps=0.7 q=41.4 size=     512KiB time=00:00:03.60 bitrate=1165.2kbits/s speed=0.0237x elapsed=0:02:31.70    \nframe=  110 fps=0.7 q=41.4 size=     512KiB time=00:00:03.60 bitrate=1165.2kbits/s speed=0.0236x elapsed=0:02:32.24    \nframe=  110 fps=0.7 q=41.4 size=     512KiB time=00:00:03.60 bitrate=1165.2kbits/s speed=0.0236x elapsed=0:02:32.76    \nframe=  110 fps=0.7 q=41.4 size=     512KiB time=00:00:03.60 bitrate=1165.2kbits/s speed=0.0235x elapsed=0:02:33.31    \nframe=  110 fps=0.7 q=41.4 size=     512KiB time=00:00:03.60 bitrate=1165.2kbits/s speed=0.0234x elapsed=0:02:33.85    \nframe=  110 fps=0.7 q=41.4 size=     512KiB time=00:00:03.60 bitrate=1165.2kbits/s speed=0.0233x elapsed=0:02:34.37    \nframe=  111 fps=0.7 q=35.6 size=     512KiB time=00:00:03.63 bitrate=1154.5kbits/s speed=0.0235x elapsed=0:02:34.89    \nframe=  111 fps=0.7 q=35.6 size=     512KiB time=00:00:03.63 bitrate=1154.5kbits/s speed=0.0234x elapsed=0:02:35.42    \nframe=  111 fps=0.7 q=35.6 size=     512KiB time=00:00:03.63 bitrate=1154.5kbits/s speed=0.0233x elapsed=0:02:35.98    \nframe=  111 fps=0.7 q=35.6 size=     512KiB time=00:00:03.63 bitrate=1154.5kbits/s speed=0.0232x elapsed=0:02:36.55    \nframe=  111 fps=0.7 q=35.6 size=     512KiB time=00:00:03.63 bitrate=1154.5kbits/s speed=0.0231x elapsed=0:02:37.15    \nframe=  112 fps=0.7 q=39.1 size=     512KiB time=00:00:03.66 bitrate=1144.0kbits/s speed=0.0233x elapsed=0:02:37.69    \nframe=  112 fps=0.7 q=39.1 size=     512KiB time=00:00:03.66 bitrate=1144.0kbits/s speed=0.0232x elapsed=0:02:38.28    \nframe=  112 fps=0.7 q=39.1 size=     512KiB time=00:00:03.66 bitrate=1144.0kbits/s speed=0.0231x elapsed=0:02:38.80    \nframe=  112 fps=0.7 q=39.1 size=     512KiB time=00:00:03.66 bitrate=1144.0kbits/s speed=0.023x elapsed=0:02:39.35    \nframe=  112 fps=0.7 q=39.1 size=     512KiB time=00:00:03.66 bitrate=1144.0kbits/s speed=0.0229x elapsed=0:02:39.92    \nframe=  112 fps=0.7 q=39.1 size=     512KiB time=00:00:03.66 bitrate=1144.0kbits/s speed=0.0228x elapsed=0:02:40.47    \nframe=  113 fps=0.7 q=41.3 size=     512KiB time=00:00:03.70 bitrate=1133.7kbits/s speed=0.023x elapsed=0:02:40.99    \nframe=  113 fps=0.7 q=41.3 size=     512KiB time=00:00:03.70 bitrate=1133.7kbits/s speed=0.0229x elapsed=0:02:41.52    \nframe=  113 fps=0.7 q=41.3 size=     512KiB time=00:00:03.70 bitrate=1133.7kbits/s speed=0.0228x elapsed=0:02:42.06    \nframe=  113 fps=0.7 q=41.3 size=     512KiB time=00:00:03.70 bitrate=1133.7kbits/s speed=0.0227x elapsed=0:02:42.65    \nframe=  113 fps=0.7 q=41.3 size=     512KiB time=00:00:03.70 bitrate=1133.7kbits/s speed=0.0227x elapsed=0:02:43.21    \nframe=  113 fps=0.7 q=41.3 size=     512KiB time=00:00:03.70 bitrate=1133.7kbits/s speed=0.0226x elapsed=0:02:43.75    \nframe=  114 fps=0.7 q=41.3 size=     512KiB time=00:00:03.73 bitrate=1123.6kbits/s speed=0.0227x elapsed=0:02:44.26    \nframe=  114 fps=0.7 q=41.3 size=     512KiB time=00:00:03.73 bitrate=1123.6kbits/s speed=0.0227x elapsed=0:02:44.79    \nframe=  114 fps=0.7 q=41.3 size=     512KiB time=00:00:03.73 bitrate=1123.6kbits/s speed=0.0226x elapsed=0:02:45.35    \nframe=  114 fps=0.7 q=41.3 size=     512KiB time=00:00:03.73 bitrate=1123.6kbits/s speed=0.0225x elapsed=0:02:45.94    \nframe=  114 fps=0.7 q=41.3 size=     512KiB time=00:00:03.73 bitrate=1123.6kbits/s speed=0.0224x elapsed=0:02:46.50    \nframe=  114 fps=0.7 q=41.3 size=     512KiB time=00:00:03.73 bitrate=1123.6kbits/s speed=0.0223x elapsed=0:02:47.04    \nframe=  115 fps=0.7 q=35.4 size=     512KiB time=00:00:03.76 bitrate=1113.6kbits/s speed=0.0225x elapsed=0:02:47.58    \nframe=  116 fps=0.7 q=39.2 size=     512KiB time=00:00:03.80 bitrate=1103.9kbits/s speed=0.0226x elapsed=0:02:48.10    \nframe=  116 fps=0.7 q=39.2 size=     512KiB time=00:00:03.80 bitrate=1103.9kbits/s speed=0.0225x elapsed=0:02:48.65    \nframe=  116 fps=0.7 q=39.2 size=     512KiB time=00:00:03.80 bitrate=1103.9kbits/s speed=0.0225x elapsed=0:02:49.22    \nframe=  116 fps=0.7 q=39.2 size=     512KiB time=00:00:03.80 bitrate=1103.9kbits/s speed=0.0224x elapsed=0:02:49.83    \nframe=  116 fps=0.7 q=39.2 size=     512KiB time=00:00:03.80 bitrate=1103.9kbits/s speed=0.0223x elapsed=0:02:50.40    \nframe=  116 fps=0.7 q=39.2 size=     512KiB time=00:00:03.80 bitrate=1103.9kbits/s speed=0.0222x elapsed=0:02:50.95    \nframe=  116 fps=0.7 q=39.2 size=     512KiB time=00:00:03.80 bitrate=1103.9kbits/s speed=0.0222x elapsed=0:02:51.49    \nframe=  116 fps=0.7 q=39.2 size=     512KiB time=00:00:03.80 bitrate=1103.9kbits/s speed=0.0221x elapsed=0:02:52.09    \nframe=  117 fps=0.7 q=41.4 size=     512KiB time=00:00:03.83 bitrate=1094.3kbits/s speed=0.0222x elapsed=0:02:52.64    \nframe=  117 fps=0.7 q=41.4 size=     512KiB time=00:00:03.83 bitrate=1094.3kbits/s speed=0.0221x elapsed=0:02:53.20    \nframe=  117 fps=0.7 q=41.4 size=     512KiB time=00:00:03.83 bitrate=1094.3kbits/s speed=0.0221x elapsed=0:02:53.73    \nframe=  117 fps=0.7 q=41.4 size=     512KiB time=00:00:03.83 bitrate=1094.3kbits/s speed=0.022x elapsed=0:02:54.24    \nframe=  117 fps=0.7 q=41.4 size=     512KiB time=00:00:03.83 bitrate=1094.3kbits/s speed=0.0219x elapsed=0:02:54.80    \nframe=  117 fps=0.7 q=41.4 size=     512KiB time=00:00:03.83 bitrate=1094.3kbits/s speed=0.0219x elapsed=0:02:55.36    \nframe=  118 fps=0.7 q=41.4 size=     512KiB time=00:00:03.86 bitrate=1084.8kbits/s speed=0.022x elapsed=0:02:55.90    \nframe=  118 fps=0.7 q=41.4 size=     512KiB time=00:00:03.86 bitrate=1084.8kbits/s speed=0.0219x elapsed=0:02:56.47    \nframe=  118 fps=0.7 q=41.4 size=     512KiB time=00:00:03.86 bitrate=1084.8kbits/s speed=0.0218x elapsed=0:02:57.05    \nframe=  118 fps=0.7 q=41.4 size=     512KiB time=00:00:03.86 bitrate=1084.8kbits/s speed=0.0218x elapsed=0:02:57.64    \nframe=  118 fps=0.7 q=41.4 size=     512KiB time=00:00:03.86 bitrate=1084.8kbits/s speed=0.0217x elapsed=0:02:58.24    \nframe=  118 fps=0.7 q=41.4 size=     512KiB time=00:00:03.86 bitrate=1084.8kbits/s speed=0.0216x elapsed=0:02:58.88    \nframe=  118 fps=0.7 q=41.4 size=     512KiB time=00:00:03.86 bitrate=1084.8kbits/s speed=0.0215x elapsed=0:02:59.47    \nframe=  118 fps=0.7 q=41.4 size=     512KiB time=00:00:03.86 bitrate=1084.8kbits/s speed=0.0215x elapsed=0:03:00.03    \nframe=  118 fps=0.7 q=41.4 size=     512KiB time=00:00:03.86 bitrate=1084.8kbits/s speed=0.0214x elapsed=0:03:00.55    \nframe=  118 fps=0.7 q=41.4 size=     512KiB time=00:00:03.86 bitrate=1084.8kbits/s speed=0.0214x elapsed=0:03:01.07    \nframe=  118 fps=0.6 q=41.4 size=     512KiB time=00:00:03.86 bitrate=1084.8kbits/s speed=0.0213x elapsed=0:03:01.63    \nframe=  118 fps=0.6 q=41.4 size=     512KiB time=00:00:03.86 bitrate=1084.8kbits/s speed=0.0212x elapsed=0:03:02.16    \nframe=  119 fps=0.7 q=35.3 size=     512KiB time=00:00:03.90 bitrate=1075.6kbits/s speed=0.0213x elapsed=0:03:02.68    \nframe=  120 fps=0.7 q=39.1 size=     512KiB time=00:00:03.93 bitrate=1066.4kbits/s speed=0.0215x elapsed=0:03:03.21    \nframe=  120 fps=0.7 q=39.1 size=     512KiB time=00:00:03.93 bitrate=1066.4kbits/s speed=0.0214x elapsed=0:03:03.73    \nframe=  120 fps=0.7 q=39.1 size=     512KiB time=00:00:03.93 bitrate=1066.4kbits/s speed=0.0213x elapsed=0:03:04.25    \nframe=  120 fps=0.6 q=39.1 size=     512KiB time=00:00:03.93 bitrate=1066.4kbits/s speed=0.0213x elapsed=0:03:04.77    \nframe=  121 fps=0.7 q=41.2 size=     512KiB time=00:00:03.96 bitrate=1057.5kbits/s speed=0.0214x elapsed=0:03:05.27    \nframe=  122 fps=0.7 q=41.5 size=     512KiB time=00:00:04.00 bitrate=1048.7kbits/s speed=0.0215x elapsed=0:03:05.79    \nframe=  122 fps=0.7 q=41.5 size=     512KiB time=00:00:04.00 bitrate=1048.7kbits/s speed=0.0215x elapsed=0:03:06.31    \nframe=  123 fps=0.7 q=35.5 size=     512KiB time=00:00:04.03 bitrate=1040.0kbits/s speed=0.0216x elapsed=0:03:06.86    \nframe=  123 fps=0.7 q=35.5 size=     512KiB time=00:00:04.03 bitrate=1040.0kbits/s speed=0.0215x elapsed=0:03:07.40    \nframe=  123 fps=0.7 q=35.5 size=     512KiB time=00:00:04.03 bitrate=1040.0kbits/s speed=0.0215x elapsed=0:03:07.96    \nframe=  123 fps=0.7 q=35.5 size=     512KiB time=00:00:04.03 bitrate=1040.0kbits/s speed=0.0214x elapsed=0:03:08.50    \nframe=  123 fps=0.7 q=35.5 size=     512KiB time=00:00:04.03 bitrate=1040.0kbits/s speed=0.0213x elapsed=0:03:09.05    \nframe=  124 fps=0.7 q=39.1 size=     512KiB time=00:00:04.06 bitrate=1031.5kbits/s speed=0.0214x elapsed=0:03:09.63    \nframe=  124 fps=0.7 q=39.1 size=     512KiB time=00:00:04.06 bitrate=1031.5kbits/s speed=0.0214x elapsed=0:03:10.19    \nframe=  124 fps=0.6 q=39.1 size=     512KiB time=00:00:04.06 bitrate=1031.5kbits/s speed=0.0213x elapsed=0:03:10.79    \nframe=  124 fps=0.6 q=39.1 size=     512KiB time=00:00:04.06 bitrate=1031.5kbits/s speed=0.0213x elapsed=0:03:11.36    \nframe=  124 fps=0.6 q=39.1 size=     512KiB time=00:00:04.06 bitrate=1031.5kbits/s speed=0.0212x elapsed=0:03:11.90    \nframe=  124 fps=0.6 q=39.1 size=     512KiB time=00:00:04.06 bitrate=1031.5kbits/s speed=0.0211x elapsed=0:03:12.45    \nframe=  125 fps=0.6 q=41.2 size=     512KiB time=00:00:04.06 bitrate=1031.5kbits/s speed=0.0211x elapsed=0:03:13.04    \nframe=  125 fps=0.6 q=41.2 size=     512KiB time=00:00:04.10 bitrate=1023.1kbits/s speed=0.0212x elapsed=0:03:13.60    \nframe=  125 fps=0.6 q=41.2 size=     512KiB time=00:00:04.10 bitrate=1023.1kbits/s speed=0.0211x elapsed=0:03:14.15    \nframe=  125 fps=0.6 q=41.2 size=     512KiB time=00:00:04.10 bitrate=1023.1kbits/s speed=0.0211x elapsed=0:03:14.74    \nframe=  126 fps=0.6 q=41.2 size=     512KiB time=00:00:04.13 bitrate=1014.8kbits/s speed=0.0212x elapsed=0:03:15.36    \nframe=  126 fps=0.6 q=41.2 size=     512KiB time=00:00:04.13 bitrate=1014.8kbits/s speed=0.0211x elapsed=0:03:15.90    \nframe=  126 fps=0.6 q=41.2 size=     512KiB time=00:00:04.13 bitrate=1014.8kbits/s speed=0.021x elapsed=0:03:16.45    \nframe=  126 fps=0.6 q=41.2 size=     512KiB time=00:00:04.13 bitrate=1014.8kbits/s speed=0.021x elapsed=0:03:17.01    \nframe=  126 fps=0.6 q=41.2 size=     512KiB time=00:00:04.13 bitrate=1014.8kbits/s speed=0.0209x elapsed=0:03:17.53    \nframe=  126 fps=0.6 q=41.2 size=     512KiB time=00:00:04.13 bitrate=1014.8kbits/s speed=0.0209x elapsed=0:03:18.07    \nframe=  126 fps=0.6 q=41.2 size=     512KiB time=00:00:04.13 bitrate=1014.8kbits/s speed=0.0208x elapsed=0:03:18.65    \nframe=  126 fps=0.6 q=41.2 size=     512KiB time=00:00:04.13 bitrate=1014.8kbits/s speed=0.0207x elapsed=0:03:19.24    \nframe=  126 fps=0.6 q=41.2 size=     512KiB time=00:00:04.13 bitrate=1014.8kbits/s speed=0.0207x elapsed=0:03:19.78    \nframe=  126 fps=0.6 q=41.2 size=     512KiB time=00:00:04.13 bitrate=1014.8kbits/s speed=0.0206x elapsed=0:03:20.31    \nframe=  127 fps=0.6 q=35.4 size=     768KiB time=00:00:04.16 bitrate=1510.0kbits/s speed=0.0207x elapsed=0:03:20.87    \nframe=  127 fps=0.6 q=35.4 size=     768KiB time=00:00:04.16 bitrate=1510.0kbits/s speed=0.0207x elapsed=0:03:21.43    \nframe=  127 fps=0.6 q=35.4 size=     768KiB time=00:00:04.16 bitrate=1510.0kbits/s speed=0.0206x elapsed=0:03:22.01    \nframe=  127 fps=0.6 q=35.4 size=     768KiB time=00:00:04.16 bitrate=1510.0kbits/s speed=0.0206x elapsed=0:03:22.55    \nframe=  128 fps=0.6 q=39.0 size=     768KiB time=00:00:04.20 bitrate=1498.0kbits/s speed=0.0207x elapsed=0:03:23.13    \nframe=  128 fps=0.6 q=39.0 size=     768KiB time=00:00:04.20 bitrate=1498.0kbits/s speed=0.0206x elapsed=0:03:23.69    \nframe=  129 fps=0.6 q=41.1 size=     768KiB time=00:00:04.23 bitrate=1486.3kbits/s speed=0.0207x elapsed=0:03:24.21    \nframe=  129 fps=0.6 q=41.1 size=     768KiB time=00:00:04.23 bitrate=1486.3kbits/s speed=0.0207x elapsed=0:03:24.73    \nframe=  129 fps=0.6 q=41.1 size=     768KiB time=00:00:04.23 bitrate=1486.3kbits/s speed=0.0206x elapsed=0:03:25.30    \nframe=  129 fps=0.6 q=41.1 size=     768KiB time=00:00:04.23 bitrate=1486.3kbits/s speed=0.0206x elapsed=0:03:25.88    \nframe=  129 fps=0.6 q=41.1 size=     768KiB time=00:00:04.23 bitrate=1486.3kbits/s speed=0.0205x elapsed=0:03:26.46    \nframe=  129 fps=0.6 q=41.1 size=     768KiB time=00:00:04.23 bitrate=1486.3kbits/s speed=0.0204x elapsed=0:03:27.02    \nframe=  129 fps=0.6 q=41.1 size=     768KiB time=00:00:04.23 bitrate=1486.3kbits/s speed=0.0204x elapsed=0:03:27.55    \nframe=  129 fps=0.6 q=41.1 size=     768KiB time=00:00:04.23 bitrate=1486.3kbits/s speed=0.0203x elapsed=0:03:28.09    \nframe=  129 fps=0.6 q=41.1 size=     768KiB time=00:00:04.23 bitrate=1486.3kbits/s speed=0.0203x elapsed=0:03:28.63    \nframe=  129 fps=0.6 q=41.1 size=     768KiB time=00:00:04.23 bitrate=1486.3kbits/s speed=0.0202x elapsed=0:03:29.19    \nframe=  129 fps=0.6 q=41.1 size=     768KiB time=00:00:04.23 bitrate=1486.3kbits/s speed=0.0202x elapsed=0:03:29.75    \nframe=  129 fps=0.6 q=41.1 size=     768KiB time=00:00:04.23 bitrate=1486.3kbits/s speed=0.0201x elapsed=0:03:30.29    \nframe=  130 fps=0.6 q=41.0 size=     768KiB time=00:00:04.26 bitrate=1474.6kbits/s speed=0.0202x elapsed=0:03:30.84    \nframe=  130 fps=0.6 q=41.0 size=     768KiB time=00:00:04.26 bitrate=1474.6kbits/s speed=0.0202x elapsed=0:03:31.38    \nframe=  130 fps=0.6 q=41.0 size=     768KiB time=00:00:04.26 bitrate=1474.6kbits/s speed=0.0201x elapsed=0:03:31.93    \nframe=  130 fps=0.6 q=41.0 size=     768KiB time=00:00:04.26 bitrate=1474.6kbits/s speed=0.0201x elapsed=0:03:32.46    \nframe=  130 fps=0.6 q=41.0 size=     768KiB time=00:00:04.26 bitrate=1474.6kbits/s speed=0.02x elapsed=0:03:33.01    \nframe=  130 fps=0.6 q=41.0 size=     768KiB time=00:00:04.26 bitrate=1474.6kbits/s speed=0.02x elapsed=0:03:33.58    \nframe=  130 fps=0.6 q=41.0 size=     768KiB time=00:00:04.26 bitrate=1474.6kbits/s speed=0.0199x elapsed=0:03:34.22    \nframe=  130 fps=0.6 q=41.0 size=     768KiB time=00:00:04.26 bitrate=1474.6kbits/s speed=0.0199x elapsed=0:03:34.82    \nframe=  130 fps=0.6 q=41.0 size=     768KiB time=00:00:04.26 bitrate=1474.6kbits/s speed=0.0198x elapsed=0:03:35.41    \nframe=  131 fps=0.6 q=35.2 size=     768KiB time=00:00:04.30 bitrate=1463.2kbits/s speed=0.0199x elapsed=0:03:35.95    \nframe=  131 fps=0.6 q=35.2 size=     768KiB time=00:00:04.30 bitrate=1463.2kbits/s speed=0.0199x elapsed=0:03:36.51    \nframe=  131 fps=0.6 q=35.2 size=     768KiB time=00:00:04.30 bitrate=1463.2kbits/s speed=0.0198x elapsed=0:03:37.09    \nframe=  131 fps=0.6 q=35.2 size=     768KiB time=00:00:04.30 bitrate=1463.2kbits/s speed=0.0198x elapsed=0:03:37.64    \nframe=  132 fps=0.6 q=38.9 size=     768KiB time=00:00:04.30 bitrate=1463.2kbits/s speed=0.0197x elapsed=0:03:38.23    \nframe=  132 fps=0.6 q=38.9 size=     768KiB time=00:00:04.33 bitrate=1452.0kbits/s speed=0.0198x elapsed=0:03:38.81    \nframe=  132 fps=0.6 q=38.9 size=     768KiB time=00:00:04.33 bitrate=1452.0kbits/s speed=0.0198x elapsed=0:03:39.36    \nframe=  132 fps=0.6 q=38.9 size=     768KiB time=00:00:04.33 bitrate=1452.0kbits/s speed=0.0197x elapsed=0:03:39.88    \nframe=  133 fps=0.6 q=40.9 size=     768KiB time=00:00:04.36 bitrate=1440.9kbits/s speed=0.0198x elapsed=0:03:40.40    \nframe=  133 fps=0.6 q=40.9 size=     768KiB time=00:00:04.36 bitrate=1440.9kbits/s speed=0.0198x elapsed=0:03:40.94    \nframe=  133 fps=0.6 q=40.9 size=     768KiB time=00:00:04.36 bitrate=1440.9kbits/s speed=0.0197x elapsed=0:03:41.48    \nframe=  134 fps=0.6 q=40.3 size=     768KiB time=00:00:04.40 bitrate=1430.0kbits/s speed=0.0198x elapsed=0:03:42.00    \nframe=  134 fps=0.6 q=40.3 size=     768KiB time=00:00:04.40 bitrate=1430.0kbits/s speed=0.0198x elapsed=0:03:42.53    \nframe=  135 fps=0.6 q=35.0 size=     768KiB time=00:00:04.43 bitrate=1419.2kbits/s speed=0.0199x elapsed=0:03:43.10    \nframe=  136 fps=0.6 q=38.6 size=     768KiB time=00:00:04.46 bitrate=1408.6kbits/s speed=0.02x elapsed=0:03:43.62    \nframe=  136 fps=0.6 q=38.6 size=     768KiB time=00:00:04.46 bitrate=1408.6kbits/s speed=0.0199x elapsed=0:03:44.16    \nframe=  137 fps=0.6 q=40.0 size=     768KiB time=00:00:04.50 bitrate=1398.2kbits/s speed=0.02x elapsed=0:03:44.68    \nframe=  137 fps=0.6 q=40.0 size=     768KiB time=00:00:04.50 bitrate=1398.2kbits/s speed=0.02x elapsed=0:03:45.20    \nframe=  137 fps=0.6 q=40.0 size=     768KiB time=00:00:04.50 bitrate=1398.2kbits/s speed=0.0199x elapsed=0:03:45.72    \nframe=  137 fps=0.6 q=40.0 size=     768KiB time=00:00:04.50 bitrate=1398.2kbits/s speed=0.0199x elapsed=0:03:46.23    \nframe=  138 fps=0.6 q=40.2 size=     768KiB time=00:00:04.53 bitrate=1387.9kbits/s speed=0.02x elapsed=0:03:46.75    \nframe=  139 fps=0.6 q=34.8 size=     768KiB time=00:00:04.56 bitrate=1377.8kbits/s speed=0.0201x elapsed=0:03:47.27    \nframe=  140 fps=0.6 q=38.1 size=     768KiB time=00:00:04.60 bitrate=1367.8kbits/s speed=0.0202x elapsed=0:03:47.79    \nframe=  140 fps=0.6 q=38.1 size=     768KiB time=00:00:04.60 bitrate=1367.8kbits/s speed=0.0201x elapsed=0:03:48.31    \nframe=  141 fps=0.6 q=39.9 size=     768KiB time=00:00:04.63 bitrate=1357.9kbits/s speed=0.0202x elapsed=0:03:48.82    \nframe=  141 fps=0.6 q=39.9 size=     768KiB time=00:00:04.63 bitrate=1357.9kbits/s speed=0.0202x elapsed=0:03:49.36    \nframe=  141 fps=0.6 q=39.9 size=     768KiB time=00:00:04.63 bitrate=1357.9kbits/s speed=0.0202x elapsed=0:03:49.89    \nframe=  141 fps=0.6 q=39.9 size=     768KiB time=00:00:04.63 bitrate=1357.9kbits/s speed=0.0201x elapsed=0:03:50.42    \nframe=  142 fps=0.6 q=39.9 size=     768KiB time=00:00:04.66 bitrate=1348.2kbits/s speed=0.0202x elapsed=0:03:50.94    \nframe=  142 fps=0.6 q=39.9 size=     768KiB time=00:00:04.66 bitrate=1348.2kbits/s speed=0.0202x elapsed=0:03:51.49    \nframe=  143 fps=0.6 q=35.0 size=     768KiB time=00:00:04.70 bitrate=1338.7kbits/s speed=0.0203x elapsed=0:03:52.04    \nframe=  144 fps=0.6 q=37.7 size=     768KiB time=00:00:04.73 bitrate=1329.3kbits/s speed=0.0204x elapsed=0:03:52.58    \nframe=  145 fps=0.6 q=39.2 size=     768KiB time=00:00:04.76 bitrate=1320.0kbits/s speed=0.0204x elapsed=0:03:53.14    \nframe=  145 fps=0.6 q=39.2 size=     768KiB time=00:00:04.76 bitrate=1320.0kbits/s speed=0.0204x elapsed=0:03:53.67    \nframe=  145 fps=0.6 q=39.2 size=     768KiB time=00:00:04.76 bitrate=1320.0kbits/s speed=0.0204x elapsed=0:03:54.21    \nframe=  146 fps=0.6 q=38.2 size=     768KiB time=00:00:04.80 bitrate=1310.8kbits/s speed=0.0205x elapsed=0:03:54.71    \nframe=  146 fps=0.6 q=38.2 size=     768KiB time=00:00:04.80 bitrate=1310.8kbits/s speed=0.0204x elapsed=0:03:55.23    \nframe=  146 fps=0.6 q=38.2 size=     768KiB time=00:00:04.80 bitrate=1310.8kbits/s speed=0.0204x elapsed=0:03:55.77    \nframe=  147 fps=0.6 q=35.1 size=     768KiB time=00:00:04.83 bitrate=1301.8kbits/s speed=0.0205x elapsed=0:03:56.30    \nframe=  147 fps=0.6 q=35.1 size=     768KiB time=00:00:04.83 bitrate=1301.8kbits/s speed=0.0204x elapsed=0:03:56.83    \nframe=  147 fps=0.6 q=35.1 size=     768KiB time=00:00:04.83 bitrate=1301.8kbits/s speed=0.0204x elapsed=0:03:57.37    \nframe=  149 fps=0.6 q=39.0 size=     768KiB time=00:00:04.90 bitrate=1284.0kbits/s speed=0.0206x elapsed=0:03:57.89    \n[mp4 @ 0000020d4c13aa80] Starting second pass: moving the moov atom to the beginning of the file\n[out#0/mp4 @ 0000020d4c13a980] video:899KiB audio:0KiB subtitle:0KiB other streams:0KiB global headers:2KiB muxing overhead: 0.573448%\nframe=  150 fps=0.6 q=37.3 Lsize=     904KiB time=00:00:04.93 bitrate=1501.7kbits/s speed=0.0207x elapsed=0:03:57.97    \nx265 [info]: frame I:      1, Avg QP:37.67  kb/s: 4858.08 \nx265 [info]: frame P:     36, Avg QP:35.65  kb/s: 3395.57 \nx265 [info]: frame B:    113, Avg QP:40.33  kb/s: 829.53  \nx265 [info]: Weighted P-Frames: Y:2.8% UV:2.8%\n\nencoded 150 frames in 237.49s (0.63 fps), 1472.23 kb/s, Avg QP:39.19\n",
  "seconds": 238.47873997688293,
  "probe_out": {}
}